<svg width="102" height="39" viewBox="0 0 102 39" fill="none" xmlns="http://www.w3.org/2000/svg">
<path fill-rule="evenodd" clip-rule="evenodd" d="M63.2758 30.5433C57.3705 36.0605 48.781 39 41.3726 39C30.9936 39 21.6883 34.1611 14.602 26.1114C14.0651 25.4782 14.5304 24.619 15.2104 25.1165C22.8336 30.7242 32.2462 34.0707 41.981 34.0707C48.5305 34.0707 55.76 32.3522 62.4168 28.7795C63.4189 28.2821 64.2421 29.6388 63.2758 30.5433Z" fill="#6B6B6B"/>
<path fill-rule="evenodd" clip-rule="evenodd" d="M65.7453 26.9707C64.9937 25.7497 60.7347 26.3828 58.8379 26.6994C58.2652 26.7898 58.1579 26.1567 58.6947 25.7045C62.0947 22.6745 67.6421 23.579 68.2863 24.5739C68.9305 25.5688 68.1074 32.6235 64.9221 35.97C64.421 36.4675 63.9558 36.1961 64.1705 35.5178C64.8863 33.2567 66.4968 28.2369 65.7453 26.9707Z" fill="#6B6B6B"/>
<path fill-rule="evenodd" clip-rule="evenodd" d="M58.9453 4.44968V1.51019C58.9453 1.05796 59.1958 0.786622 59.5179 0.786622H69.8968C70.2189 0.786622 70.5053 1.10318 70.5053 1.51019V3.99745C70.5053 4.40445 70.2189 4.94713 69.7179 5.85159L64.3495 15.5293C66.3537 15.4841 68.4653 15.8458 70.2547 17.1121C70.6484 17.3834 70.7558 17.8356 70.7916 18.2426V21.363C70.7916 21.8153 70.4337 22.3127 70.04 22.0414C66.8547 19.9159 62.5958 19.6898 59.0884 22.0866C58.7305 22.3127 58.3368 21.8605 58.3368 21.4082V18.4235C58.3368 17.9713 58.3368 17.1573 58.7305 16.4337L64.9579 5.17324H59.5537C59.2316 5.17324 58.9453 4.85668 58.9453 4.44968ZM21.1158 22.6745H17.9663C17.68 22.6293 17.4295 22.3579 17.3937 21.9961V1.55542C17.3937 1.14841 17.68 0.831848 18.0021 0.831848H20.9368C21.2589 0.831848 21.4737 1.14841 21.5095 1.51019V4.17834H21.5811C22.3326 1.60063 23.8 0.379619 25.7326 0.379619C27.7011 0.379619 28.9537 1.60063 29.8126 4.17834C30.5642 1.60063 32.3179 0.379619 34.1789 0.379619C35.5032 0.379619 36.9347 1.05796 37.8295 2.64076C38.8316 4.35923 38.6168 6.84649 38.6168 9.06241V21.9961C38.6168 22.4031 38.3305 22.7197 38.0084 22.7197H34.8947C34.5726 22.6745 34.3221 22.3579 34.3221 21.9961V11.1427C34.3221 10.2834 34.3937 8.11272 34.2505 7.29871C34 5.94202 33.32 5.53502 32.3895 5.53502C31.6379 5.53502 30.8147 6.16815 30.4926 7.20827C30.1705 8.2484 30.2063 9.96686 30.2063 11.1427V21.9961C30.2063 22.4031 29.92 22.7197 29.5979 22.7197H26.4484C26.1263 22.6745 25.8758 22.3579 25.8758 21.9961V11.1427C25.8758 8.88151 26.1621 5.4898 23.9432 5.4898C21.6884 5.4898 21.76 8.74584 21.76 11.1427V21.9961C21.7242 22.3579 21.4737 22.6745 21.1158 22.6745ZM79.4526 0.379619C84.1411 0.379619 86.6821 5.44458 86.6821 11.9114C86.6821 18.1522 83.8905 23.1267 79.4526 23.1267C74.8716 23.1267 72.3663 18.0618 72.3663 11.7306C72.3305 5.35414 74.8716 0.379619 79.4526 0.379619ZM79.4526 4.58534C77.1263 4.58534 76.9832 8.61018 76.9832 11.0974C76.9832 13.5847 76.9474 18.921 79.4168 18.921C81.8505 18.921 81.9937 14.6248 81.9937 12.0019C81.9937 10.2834 81.9221 8.20318 81.5284 6.57516C81.1705 5.12802 80.4547 4.58534 79.4526 4.58534ZM92.7305 22.6745H89.5811C89.2589 22.6293 89.0084 22.3127 89.0084 21.9509V1.46496C89.0442 1.10318 89.2947 0.786622 89.6168 0.786622H92.5516C92.8379 0.786622 93.0526 1.05797 93.1242 1.37453V4.4949H93.1958C94.0905 1.69108 95.3074 0.379619 97.4905 0.379619C98.8863 0.379619 100.282 1.01273 101.177 2.77642C102 4.40445 102 7.16304 102 9.15285V22.0414C101.964 22.4031 101.714 22.6745 101.392 22.6745H98.2421C97.9558 22.6293 97.7053 22.3579 97.6695 22.0414V10.9165C97.6695 8.6554 97.8842 5.39936 95.701 5.39936C94.9495 5.39936 94.2337 6.03248 93.8758 7.02738C93.4463 8.29362 93.3747 9.51463 93.3747 10.9165V21.9509C93.339 22.3579 93.0526 22.6745 92.7305 22.6745ZM50.6779 12.9064C50.6779 14.4439 50.7137 15.7554 50.1053 17.1573C49.6042 18.2879 48.8168 18.9662 47.9221 18.9662C46.7053 18.9662 45.9895 17.7904 45.9895 16.072C45.9895 12.6802 48.3874 12.0471 50.6779 12.0471V12.9064ZM53.8632 22.6293C53.6484 22.8554 53.3621 22.9006 53.1116 22.7197C52.0737 21.6344 51.8589 21.0917 51.2863 20.0516C49.5684 22.2675 48.3158 22.9458 46.0968 22.9458C43.4484 22.9458 41.3726 20.8656 41.3726 16.7503C41.3726 13.4943 42.7684 11.3235 44.7368 10.2382C46.4547 9.28852 48.8526 9.10764 50.6779 8.8363V8.33884C50.6779 7.38916 50.7495 6.2586 50.2842 5.44458C49.8905 4.72102 49.1747 4.40445 48.5305 4.40445C47.3137 4.40445 46.24 5.17325 45.9895 6.80127C45.9179 7.16305 45.7389 7.52482 45.4526 7.52482L42.4105 7.11782C42.16 7.02738 41.8737 6.80127 41.9453 6.30382C42.6611 1.60064 45.9895 0.19873 48.9958 0.19873C50.5347 0.19873 52.539 0.696179 53.7558 2.18853C55.2947 3.99745 55.1516 6.43949 55.1516 9.06241V15.2579C55.1516 17.1121 55.76 17.9261 56.3326 18.9662C56.5474 19.328 56.5832 19.7802 56.3326 20.0063C55.6526 20.6847 54.5074 21.9509 53.8632 22.6293ZM9.34105 12.9064C9.34105 14.4439 9.37684 15.7554 8.76842 17.1573C8.26737 18.2879 7.48 18.9662 6.58526 18.9662C5.36842 18.9662 4.65263 17.7904 4.65263 16.072C4.65263 12.6802 7.05053 12.0471 9.34105 12.0471V12.9064ZM12.4905 22.6293C12.2758 22.8554 11.9895 22.9006 11.7389 22.7197C10.7011 21.6344 10.4863 21.0917 9.91368 20.0516C8.19579 22.2675 6.94316 22.9458 4.72421 22.9458C2.07579 22.9458 0 20.8656 0 16.7503C0 13.4943 1.39579 11.3235 3.36421 10.2382C5.0821 9.28852 7.48 9.10764 9.30526 8.8363V8.33884C9.30526 7.38916 9.37684 6.2586 8.91158 5.44458C8.51789 4.72102 7.80211 4.40445 7.1579 4.40445C5.94105 4.40445 4.86737 5.17325 4.61684 6.80127C4.54526 7.16305 4.36631 7.52482 4.08 7.52482L1.03789 7.11782C0.787366 7.02738 0.501055 6.80127 0.572634 6.30382C1.28842 1.60064 4.61684 0.19873 7.62316 0.19873C9.16211 0.19873 11.1663 0.696179 12.3832 2.18853C13.9221 3.99745 13.7789 6.43949 13.7789 9.06241V15.2579C13.7789 17.1121 14.3874 17.9261 14.96 18.9662C15.1747 19.328 15.2105 19.7802 14.96 20.0063C14.28 20.6847 13.1347 21.9509 12.4905 22.6293Z" fill="#6B6B6B"/>
</svg>
