<svg width="100" height="100" viewBox="0 0 100 100" fill="none" xmlns="http://www.w3.org/2000/svg">
<circle cx="50" cy="50" r="50" fill="#CFECDB"/>
<path d="M71.775 56.243C69.5421 54.0101 66.5229 52.8655 63.3976 53.0429L60.3546 49.9999L73.2805 37.074C74.3834 35.9711 74.9909 34.5002 74.9909 32.9322C74.9909 31.3641 74.3834 29.8932 73.2805 28.7904L71.2096 26.7195C70.1067 25.6165 68.6358 25.0092 67.0677 25.0092C65.4998 25.0092 64.0288 25.6166 62.9259 26.7194L50 39.6454L46.9569 36.6023C47.1344 33.4768 45.9896 30.4578 43.7568 28.225C40.3754 24.8434 35.2445 24.0342 30.9896 26.211L29.1984 27.1274L35.9909 33.92L33.9199 35.991L27.1275 29.1984L26.2111 30.9896C24.0341 35.2446 24.8435 40.3753 28.225 43.7569C30.4578 45.9897 33.4764 47.1341 36.6024 46.957L39.6454 49.9999L28.4638 61.1815L25.0165 74.9834L38.8184 71.5361L50 60.3545L53.0431 63.3976C52.8656 66.523 54.0103 69.5421 56.2431 71.7749C58.3595 73.8913 61.1603 75.0001 64.0035 75C65.7032 74.9999 67.4184 74.6034 69.0104 73.7888L70.8016 72.8724L64.009 66.0799L66.08 64.0089L72.8726 70.8015L73.789 69.0102C75.9659 64.7554 75.1565 59.6245 71.775 56.243ZM64.9967 28.7903C65.5465 28.2406 66.2821 27.9379 67.0677 27.9379C67.8535 27.9379 68.5889 28.2406 69.1386 28.7903L71.2095 30.8613C71.7592 31.411 72.0621 32.1465 72.0621 32.9322C72.0621 33.7179 71.7592 34.4534 71.2095 35.0031L69.7305 36.4821L63.5177 30.2693L64.9967 28.7903ZM61.4469 32.3402L67.6597 38.553L65.5888 40.6239L59.376 34.4111L61.4469 32.3402ZM34.32 28.1072C36.4722 27.6475 38.7282 28.0919 40.5563 29.3546L38.0618 31.849L34.32 28.1072ZM37.6851 43.8977L36.9765 43.9845C34.4959 44.2884 32.0606 43.4505 30.2959 41.6859C28.3277 39.7176 27.5475 36.9415 28.1072 34.32L33.9199 40.1327L42.6274 31.4253C43.7383 33.0325 44.2278 34.9895 43.9845 36.9764L43.8977 37.685L47.929 41.7163L41.7162 47.929L37.6851 43.8977ZM57.3053 36.482L59.3761 38.5529L33.9279 64.0011L31.857 61.9302L57.3053 36.482ZM29.0374 70.9624L30.5794 64.7943L35.2055 69.4204L29.0374 70.9624ZM38.0698 68.143L35.9988 66.072L61.447 40.6238L63.518 42.6948L38.0698 68.143ZM65.6799 71.8926C63.5279 72.3522 61.2717 71.9079 59.4436 70.6452L61.9382 68.1507L65.6799 71.8926ZM71.8926 65.6798L66.0799 59.8671L57.3724 68.5745C56.2616 66.9673 55.772 65.0103 56.0154 63.0233L56.1022 62.3148L52.0709 58.2835L58.2837 52.0707L62.3149 56.1021L63.0235 56.0153C65.5045 55.7116 67.9394 56.5492 69.7041 58.3139C71.6723 60.2821 72.4524 63.0583 71.8926 65.6798Z" fill="#0E9E4A"/>
</svg>
