<svg width="100" height="100" viewBox="0 0 100 100" fill="none" xmlns="http://www.w3.org/2000/svg">
<circle cx="50" cy="50" r="50" fill="#CFECDB"/>
<path d="M67.4944 35.5056C66.8308 34.842 65.7891 34.7442 65.0133 35.2728C62.0908 37.2648 47.4322 47.2815 45.8568 48.8568C43.5723 51.1414 43.5723 54.8586 45.8568 57.1433C46.9991 58.2855 48.4997 58.8567 50.0001 58.8567C51.5005 58.8567 53.001 58.2855 54.1434 57.1433C55.7187 55.5679 65.7353 40.9093 67.7273 37.9868C68.2558 37.2112 68.158 36.1694 67.4944 35.5056ZM51.3811 54.3811C50.6196 55.1427 49.3805 55.1427 48.619 54.3811C47.8575 53.6196 47.8574 52.3809 48.6187 51.6194C49.2308 51.0145 53.3926 48.0463 58.5131 44.487C54.9539 49.6075 51.9857 53.7692 51.3811 54.3811Z" fill="#0E9E4A"/>
<path d="M34.0069 62.0844L31.5958 63.2605C29.8315 60.1119 28.9062 56.5976 28.9062 53C28.9062 50.3642 29.3923 47.8396 30.2793 45.5114L33.0421 46.8366C33.3146 46.9673 33.6021 47.0292 33.8854 47.0292C34.6133 47.0292 35.312 46.6205 35.6479 45.9203C36.1143 44.9478 35.7041 43.7811 34.7314 43.3146L32.0037 42.0062C35.394 36.4769 41.26 32.6219 48.047 31.9959V34.9335C48.047 36.0122 48.9214 36.8866 50.0001 36.8866C51.0788 36.8866 51.9532 36.0122 51.9532 34.9335V31.9944C54.2802 32.2063 56.5317 32.7988 58.6691 33.7637C59.6521 34.2075 60.809 33.7701 61.2528 32.7872C61.6967 31.804 61.2595 30.6473 60.2763 30.2034C57.0374 28.7414 53.58 28 50 28C43.3223 28 37.0442 30.6004 32.3223 35.3223C27.6005 40.0442 25 46.3223 25 53C25 57.9346 26.4646 62.7338 29.2356 66.8784C29.6089 67.4365 30.226 67.7462 30.8605 67.7462C31.149 67.7462 31.4412 67.6822 31.7157 67.5483L35.7196 65.5952C36.6892 65.1223 37.0917 63.953 36.6187 62.9835C36.1458 62.0141 34.9765 61.6116 34.0069 62.0844Z" fill="#0E9E4A"/>
<path d="M72.7965 42.7238C72.3527 41.7407 71.1962 41.3032 70.2127 41.7472C69.2296 42.1911 68.7924 43.3478 69.2362 44.3309C70.4688 47.0612 71.0938 49.9779 71.0938 52.9999C71.0938 56.6029 70.1654 60.1229 68.396 63.2751L65.8787 62.0764C64.905 61.6127 63.7395 62.0261 63.2756 63.0001C62.8118 63.974 63.2254 65.1395 64.1993 65.6033L68.3009 67.5564C68.5707 67.6848 68.8567 67.7462 69.1396 67.7462C69.7743 67.7462 70.3915 67.4362 70.7643 66.8785C73.5354 62.7337 75 57.9345 75 52.9999C75 49.42 74.2586 45.9625 72.7965 42.7238Z" fill="#0E9E4A"/>
</svg>
