<svg width="78" height="34" viewBox="0 0 78 34" fill="none" xmlns="http://www.w3.org/2000/svg">
<path d="M39.2391 4.44438C39.7673 4.46908 40.2718 4.67082 40.6714 5.01712C41.2159 5.53259 41.3587 6.39213 41.1009 7.07983C40.099 9.14213 37.7163 10.5196 36.0882 10.9753C35.1141 11.2044 33.8827 11.2044 32.9945 10.8608C32.5645 11.1185 32.2018 11.9515 31.6768 11.6053C30.9169 11.0119 31.5747 10.083 31.136 9.42394C31.0455 9.28822 30.8177 9.27826 30.7031 9.05622C30.1013 7.73849 30.8463 6.47804 31.6768 5.47573C33.0613 3.93098 37.0336 2.20984 39.2391 4.44438ZM34.6273 5.47532C33.8536 5.61851 32.98 5.9551 32.5077 6.50668C32.035 7.05784 31.7345 7.59531 32.0209 8.16805C33.0236 7.42348 33.5104 6.39213 34.6277 5.76211C34.6273 5.64714 34.7991 5.56123 34.6273 5.47532ZM39.2968 5.76211C37.32 5.58987 35.8304 7.07984 34.4268 8.5117C34.3409 8.7408 33.8254 8.99853 34.2263 9.25627C36.1172 9.42809 37.9218 8.8844 39.2968 7.62353C39.6981 7.25125 39.9837 6.76441 39.784 6.24853C39.6981 6.04848 39.496 5.84802 39.2968 5.76211ZM56.4256 14.2981C57.3424 16.5326 58.1156 20.0554 56.4256 22.204C55.9674 22.7195 55.1656 23.1947 54.6501 22.8054C52.7592 21.2876 51.9578 19.1104 50.7832 17.1622C50.6114 17.0763 50.6114 17.3058 50.5255 17.3917C50.0959 19.3681 50.8978 21.9463 49.5518 23.4927C49.0364 23.5786 48.5541 23.3134 48.3773 22.8054C47.7182 20.7718 48.4051 18.6518 48.5769 16.6181C48.9782 15.5868 49.1501 14.384 50.0382 13.6104C51.4705 14.1831 52.1578 15.7876 52.9879 16.9622C53.5901 17.8499 54.0765 18.8526 54.7638 19.6545C55.3652 19.3968 55.0693 18.6107 55.0506 18.1363C54.8207 16.2745 54.3052 14.5558 53.8179 12.7799C53.7901 12.3217 53.5324 11.5481 54.0184 11.2617C55.3092 11.8349 55.8524 13.1808 56.4256 14.2981ZM47.7751 13.6104C47.7751 14.0403 47.4314 14.5774 47.1442 14.6417C44.3946 15.0713 41.3296 14.8135 38.7519 15.6727C38.6659 15.9877 39.0382 16.0449 39.2387 16.1309C41.4438 16.4745 43.7646 16.5604 45.9132 17.1049C47.0492 17.3934 47.4605 18.7381 47.5464 19.8549C47.5991 20.7356 47.2604 21.8027 46.4005 22.4045C44.2813 23.7509 41.0445 23.6932 38.8955 22.4622C38.0741 22.0015 37.2914 21.2594 37.2341 20.3426C37.2391 19.6146 37.5495 19.0415 38.065 18.7671C40.1277 17.9363 42.6768 18.3953 44.4531 19.4544C44.5669 20.0276 43.9468 19.9965 43.6501 20.1994C41.6733 21.3453 40.1841 18.9112 38.3509 19.7981C38.0932 19.9699 37.9068 20.4493 38.2077 20.6003C40.4705 21.6031 42.9914 20.8867 45.2255 20.2567C45.4833 20.1708 45.7987 19.9131 45.8269 19.6553C45.741 18.7385 44.7101 18.5385 44.051 18.2807C42.1032 17.7939 39.955 17.7939 37.8637 17.5934C37.4628 17.5075 36.9519 17.2282 36.8327 16.9061C36.6036 16.2188 36.6036 15.2734 37.1191 14.7007C39.7828 12.3516 43.8215 12.5525 47.2015 13.1825C47.431 13.2667 47.6887 13.3526 47.7751 13.6104ZM35.2577 14.699C35.5154 17.4486 35.6586 19.9986 35.6013 22.8913C35.5441 23.2632 35.1145 23.3495 34.8281 23.4927C34.3699 23.5786 33.7777 23.4811 33.5963 23.235C32.9377 22.1746 33.1668 20.7431 33.1095 19.454C33.1954 17.4208 33.1668 15.2149 33.7399 13.324C33.8495 13.0492 34.1695 12.8085 34.4272 12.9799C35.1145 13.324 35.2291 14.0117 35.2577 14.699ZM67.0824 14.2981C67.2202 14.5297 67.3642 14.8874 67.0824 15.0426C65.7933 15.6154 64.0464 15.3577 62.5564 15.5295C62.1555 15.8731 61.8401 16.4459 61.9829 16.9618C62.1269 17.0477 62.2551 17.1784 62.4133 17.1618C63.3292 17.2195 64.7047 16.7322 65.3069 17.5914C65.4538 17.847 65.2869 18.8016 64.8773 18.8232C63.7596 18.9672 61.9219 18.6829 61.3819 18.9672C60.6946 19.4254 60.7515 20.3131 60.4937 21.0299C60.981 21.3449 61.4911 21.0224 62.0688 20.9436C63.1296 20.7718 64.3042 20.4567 65.3633 20.6858C65.5638 21.0581 65.8506 21.4595 65.6497 21.9177C63.8439 23.3499 61.5147 24.8179 59.0332 23.7795C58.1019 23.362 57.6869 21.9463 58.0023 20.7439C58.2023 19.8844 59.0901 19.0539 58.5464 18.1371C58.4605 17.7358 58.69 17.3926 59.0337 17.3066C59.9787 17.3066 59.7778 16.1321 60.2651 15.5876C59.721 14.9862 58.3464 15.0148 58.4895 13.8117C59.1486 13.468 59.9509 13.5826 60.6946 13.468C62.3846 13.124 64.2751 12.9235 65.995 13.124C66.3374 13.1928 66.796 13.8685 67.0824 14.2981ZM26.1772 7.76713C28.8205 9.92779 32.25 13.6108 31.8204 17.8499C31.3045 21.2017 27.7527 23.7222 24.7449 24.5245C21.8231 25.3836 18.1567 25.2977 15.1772 24.6104C14.9767 25.1549 14.7763 25.8132 14.1462 26.0427C13.7453 26.1859 13.2294 26.0999 12.9144 25.8422C12.0267 25.0113 12.7426 23.4072 11.4535 22.8922C8.9326 21.8322 6.21123 19.7408 4.92256 17.163C4.75073 16.6476 4.95119 16.1321 5.2662 15.7312C7.243 14.1557 9.73486 13.5257 12.2271 13.0385C12.3703 13.0957 12.313 12.8953 12.4276 12.838C12.5708 11.1193 12.628 9.37165 13.1722 7.82482C13.2962 7.60776 13.6017 7.53845 13.8026 7.68163C15.3781 8.8844 14.6331 11.148 15.3208 12.7803C18.3285 12.9235 21.3363 13.0667 23.7136 14.7571C24.5158 15.4158 24.7113 16.6737 24.4581 17.3926C24.2054 18.1102 23.3699 18.6244 22.5963 18.6808C22.0804 18.6808 21.1067 18.731 21.164 18.3376C21.2213 17.9437 22.9163 17.2992 22.3958 16.7617C21.6475 15.9893 17.9035 15.5299 15.5831 15.2435C15.2967 15.1863 15.034 15.2722 15.034 15.5872C14.9767 17.764 14.8049 20.17 15.1772 22.2617C15.2058 22.4053 15.3776 22.5771 15.5212 22.605C19.6172 23.264 23.9427 22.8913 27.1509 20.5427C28.6404 19.3403 29.1277 17.6491 28.8695 15.7876C27.5804 10.603 22.1667 7.48034 17.7267 5.47532C13.4017 3.58485 8.61759 2.61077 3.49028 2.86892C2.67391 2.92868 1.38025 3.21049 1.37071 3.49935C1.36116 3.78821 2.83619 3.69732 2.65938 4.24392C2.48299 4.7901 0.983897 4.46596 0.539813 4.32983C0.0957278 4.1937 0.138891 3.55621 0.25344 3.15529C1.37071 1.1789 4.48843 1.01912 5.89664 0.949806C13.6876 0.74893 21.2217 3.716 26.1772 7.76713ZM12.1412 15.444C10.1644 15.4726 8.07348 15.6731 6.24028 16.3604C5.868 16.5036 5.40939 16.9045 5.69576 17.3917C6.44033 18.394 7.5053 19.217 8.50304 19.7977C9.50078 20.3775 10.8235 21.1154 12.0267 21.2876C12.313 19.4254 12.313 17.5922 12.2844 15.6731C12.1694 15.6158 12.284 15.5013 12.1412 15.444ZM71.3497 12.8372C71.2638 15.329 68.943 16.8763 68.943 19.3681C69.0289 19.454 69.087 19.5686 69.2007 19.5121C71.0634 17.4781 72.8962 14.5849 75.6175 13.7257C76.3347 13.6685 76.9826 14.2914 77.2507 14.7571C78.1961 16.6476 77.9678 19.3117 76.6497 21.0303C75.2896 22.7174 72.9252 24.4103 70.2337 24.1236C69.1169 26.8736 68.342 29.7668 67.9124 32.7745C67.6833 33.3759 67.1397 32.8318 66.796 32.7172C64.476 30.884 66.381 26.031 66.5383 25.4118C66.6956 24.7943 67.3165 23.3375 67.7705 22.1177C66.6819 20.1704 67.3692 17.8209 68.2569 16.0163C68.9442 14.8131 69.8905 13.61 71.0073 12.6936C71.1493 12.694 71.2638 12.7226 71.3497 12.8372ZM75.9624 15.9308C75.6188 15.8735 75.4752 16.3322 75.1892 16.4181C73.8719 17.9076 72.5537 19.3972 71.8947 21.1731C72.7833 21.2876 73.5274 20.7149 74.3015 20.3999C75.6188 19.569 76.4497 18.1948 76.3638 16.6189C76.3061 16.3604 76.077 16.1599 75.9624 15.9308Z" fill="#6B6B6B"/>
</svg>
