<svg width="100" height="100" viewBox="0 0 100 100" fill="none" xmlns="http://www.w3.org/2000/svg">
<circle cx="50" cy="50" r="50" fill="#CFECDB"/>
<path d="M70.8333 70.8333V47.9165C70.8333 47.364 70.6138 46.8341 70.2231 46.4434C69.8324 46.0527 69.3025 45.8332 68.75 45.8332H60.4167C59.8641 45.8332 59.3342 46.0527 58.9435 46.4434C58.5528 46.8341 58.3333 47.364 58.3333 47.9165V70.8333H56.25V56.2499C56.25 55.6974 56.0305 55.1675 55.6398 54.7768C55.2491 54.3861 54.7192 54.1666 54.1667 54.1666H45.8333C45.2808 54.1666 44.7509 54.3861 44.3602 54.7768C43.9695 55.1675 43.75 55.6974 43.75 56.2499V70.8333H41.6667V60.4166C41.6667 59.8641 41.4472 59.3342 41.0565 58.9435C40.6658 58.5528 40.1359 58.3333 39.5833 58.3333H31.25C30.6975 58.3333 30.1676 58.5528 29.7769 58.9435C29.3862 59.3342 29.1667 59.8641 29.1667 60.4166V70.8333H25V75H75V70.8333H70.8333ZM33.3333 70.8333V62.5H37.5V70.8333H33.3333ZM47.9167 70.8333V58.3333H52.0833V70.8333H47.9167ZM62.5 70.8333V49.9999H66.6667V70.8333H62.5Z" fill="#0E9E4A"/>
<path d="M70.0193 32.4171L70.8956 35.9218L74.9378 34.9114L72.8544 26.578C72.7204 26.042 72.379 25.5813 71.9053 25.297C71.4316 25.0127 70.8644 24.9282 70.3284 25.0621L61.9951 27.1455L63.0055 31.1877L66.3786 30.3444C54.5732 47.4109 34.5633 52.0834 25 52.0834V56.2501C30.1138 56.2501 38.6299 54.9037 47.1951 51.1248C56.8268 46.875 64.4831 40.5937 70.0193 32.4171Z" fill="#0E9E4A"/>
</svg>
