<svg width="20" height="20" id="ig" viewBox="0 0 20 20" fill="#c0c0c0" xmlns="http://www.w3.org/2000/svg">
<path fill-rule="evenodd" clip-rule="evenodd" d="M10 0C7.28417 0 6.94363 0.0115106 5.87702 0.0601768C4.81264 0.108724 4.08569 0.277783 3.44962 0.525004C2.79203 0.780521 2.23436 1.12245 1.67839 1.67838C1.12246 2.23435 0.780521 2.79203 0.525004 3.44962C0.277783 4.08569 0.10873 4.81263 0.0601832 5.87701C0.011517 6.94362 0 7.28416 0 10C0 12.7158 0.011517 13.0564 0.0601832 14.123C0.10873 15.1874 0.277783 15.9143 0.525004 16.5504C0.780521 17.208 1.12246 17.7656 1.67839 18.3216C2.23436 18.8775 2.79203 19.2195 3.44962 19.475C4.08569 19.7222 4.81264 19.8913 5.87702 19.9398C6.94363 19.9885 7.28417 20 10 20C12.7158 20 13.0564 19.9885 14.123 19.9398C15.1874 19.8913 15.9143 19.7222 16.5504 19.475C17.208 19.2195 17.7656 18.8775 18.3216 18.3216C18.8775 17.7656 19.2195 17.208 19.475 16.5504C19.7222 15.9143 19.8913 15.1874 19.9398 14.123C19.9885 13.0564 20 12.7158 20 10C20 7.28416 19.9885 6.94362 19.9398 5.87701C19.8913 4.81263 19.7222 4.08569 19.475 3.44962C19.2195 2.79203 18.8775 2.23435 18.3216 1.67838C17.7656 1.12245 17.208 0.780521 16.5504 0.525004C15.9143 0.277783 15.1874 0.108724 14.123 0.0601768C13.0564 0.0115106 12.7158 0 10 0ZM10 1.8018C12.6701 1.8018 12.9864 1.812 14.0409 1.86011C15.0158 1.90457 15.5454 2.06748 15.8977 2.20442C16.3645 2.38583 16.6976 2.60253 17.0475 2.95248C17.3975 3.30239 17.6142 3.63551 17.7956 4.10229C17.9325 4.45466 18.0954 4.98415 18.1399 5.95914C18.188 7.0136 18.1982 7.32989 18.1982 10C18.1982 12.6701 18.188 12.9864 18.1399 14.0409C18.0954 15.0158 17.9325 15.5453 17.7956 15.8977C17.6142 16.3645 17.3975 16.6976 17.0475 17.0475C16.6976 17.3975 16.3645 17.6142 15.8977 17.7956C15.5454 17.9325 15.0158 18.0954 14.0409 18.1399C12.9866 18.188 12.6703 18.1982 10 18.1982C7.3297 18.1982 7.01348 18.188 5.95914 18.1399C4.98415 18.0954 4.45466 17.9325 4.10229 17.7956C3.63551 17.6142 3.30239 17.3975 2.95247 17.0475C2.60256 16.6976 2.38583 16.3645 2.20442 15.8977C2.06748 15.5453 1.90457 15.0158 1.86011 14.0409C1.812 12.9864 1.8018 12.6701 1.8018 10C1.8018 7.32989 1.812 7.0136 1.86011 5.95914C1.90457 4.98415 2.06748 4.45466 2.20442 4.10229C2.38583 3.63551 2.60252 3.30239 2.95247 2.95248C3.30239 2.60253 3.63551 2.38583 4.10229 2.20442C4.45466 2.06748 4.98415 1.90457 5.95914 1.86011C7.0136 1.812 7.3299 1.8018 10 1.8018ZM10 4.86487C7.16393 4.86487 4.86487 7.16393 4.86487 10C4.86487 12.8361 7.16393 15.1351 10 15.1351C12.8361 15.1351 15.1351 12.8361 15.1351 10C15.1351 7.16393 12.8361 4.86487 10 4.86487ZM10 13.3333C8.15905 13.3333 6.66667 11.841 6.66667 10C6.66667 8.15904 8.15905 6.66667 10 6.66667C11.841 6.66667 13.3333 8.15904 13.3333 10C13.3333 11.841 11.841 13.3333 10 13.3333ZM16.538 4.66199C16.538 5.32473 16.0008 5.86197 15.338 5.86197C14.6753 5.86197 14.138 5.32473 14.138 4.66199C14.138 3.99924 14.6753 3.46196 15.338 3.46196C16.0008 3.46196 16.538 3.99924 16.538 4.66199Z" fill="current"/>
</svg>
