<svg width="20" height="20" viewBox="0 0 20 20" fill="none" xmlns="http://www.w3.org/2000/svg">
<path d="M7.43081 15.6292L6.45881 16.5952C6.05161 16.996 5.50316 17.2206 4.93181 17.2206C4.36045 17.2206 3.812 16.996 3.40481 16.5952C3.20627 16.3986 3.04867 16.1646 2.94112 15.9067C2.83356 15.6488 2.77819 15.3722 2.77819 15.0928C2.77819 14.8134 2.83356 14.5368 2.94112 14.2789C3.04867 14.021 3.20627 13.787 3.40481 13.5904L6.98081 10.0444C7.72121 9.3088 9.11561 8.2264 10.132 9.2344C10.2414 9.35103 10.3731 9.44443 10.5194 9.50903C10.6657 9.57362 10.8235 9.60809 10.9833 9.61037C11.1432 9.61265 11.3019 9.58269 11.45 9.52229C11.598 9.46189 11.7324 9.37229 11.845 9.25882C11.9577 9.14536 12.0464 9.01035 12.1057 8.86188C12.165 8.7134 12.1939 8.55449 12.1904 8.39463C12.187 8.23477 12.1514 8.07724 12.0858 7.93144C12.0202 7.78563 11.9258 7.65455 11.8084 7.546C10.0828 5.8324 7.52921 6.1492 5.30561 8.356L1.72961 11.9032C1.30708 12.3198 0.97186 12.8164 0.743561 13.3641C0.515263 13.9118 0.398468 14.4995 0.400009 15.0928C0.398535 15.6861 0.51536 16.2738 0.743655 16.8215C0.97195 17.3691 1.30713 17.8658 1.72961 18.2824C2.61281 19.1584 3.77201 19.5976 4.93241 19.5976C6.09281 19.5976 7.25321 19.1596 8.13521 18.2824L9.10841 17.3164C9.21939 17.2066 9.30761 17.076 9.368 16.9321C9.42839 16.7882 9.45976 16.6337 9.46032 16.4776C9.46088 16.3216 9.43061 16.1669 9.37125 16.0225C9.31189 15.8782 9.2246 15.7469 9.11441 15.6364C8.89165 15.413 8.58955 15.2869 8.27409 15.2856C7.95864 15.2842 7.65547 15.4078 7.43081 15.6292ZM18.2692 1.8484C16.4128 0.00759977 13.8184 -0.0920002 12.1024 1.612L10.8916 2.8144C10.6679 3.03655 10.5415 3.33847 10.5404 3.65376C10.5393 3.96904 10.6635 4.27186 10.8856 4.4956C11.1078 4.71934 11.4097 4.84566 11.725 4.84679C12.0403 4.84791 12.3431 4.72375 12.5668 4.5016L13.7788 3.3004C14.6668 2.4172 15.832 2.7832 16.594 3.5368C16.9972 3.9388 17.2204 4.4716 17.2204 5.0392C17.2204 5.6068 16.9972 6.1396 16.594 6.5404L12.778 10.3252C11.0332 12.0544 10.2148 11.2444 9.86561 10.8976C9.75482 10.7876 9.62346 10.7005 9.47902 10.6413C9.33457 10.5821 9.17988 10.5519 9.02376 10.5524C8.86765 10.553 8.71318 10.5843 8.56916 10.6445C8.42514 10.7048 8.2944 10.7928 8.18441 10.9036C8.07441 11.0144 7.98731 11.1457 7.92809 11.2902C7.86886 11.4346 7.83866 11.5893 7.83922 11.7454C7.83978 11.9016 7.87108 12.056 7.93133 12.2001C7.99159 12.3441 8.07962 12.4748 8.19041 12.5848C8.99201 13.3792 9.90641 13.7728 10.864 13.7728C12.0364 13.7728 13.276 13.1824 14.4556 12.0124L18.2716 8.2288C18.6932 7.81161 19.0278 7.31481 19.2558 6.76727C19.4838 6.21972 19.6008 5.63233 19.6 5.0392C19.6011 4.44564 19.484 3.8578 19.2555 3.30997C19.027 2.76215 18.6917 2.2653 18.2692 1.8484Z" fill="#0E9E4A"/>
</svg>
