<svg width="78" height="41" viewBox="0 0 78 41" fill="none" xmlns="http://www.w3.org/2000/svg">
<path fill-rule="evenodd" clip-rule="evenodd" d="M13.0177 24.8384C12.4001 24.8384 11.9166 25.2705 11.9166 25.9009C11.9166 26.5317 12.4026 26.9613 13.0177 26.9613C13.6323 26.9613 14.1187 26.5288 14.1187 25.9009C14.1187 25.2705 13.6348 24.8384 13.0177 24.8384ZM13.0177 26.6575C12.5773 26.6575 12.2507 26.3358 12.2507 25.9009C12.2507 25.4663 12.5748 25.1422 13.0177 25.1422C13.4551 25.1422 13.7842 25.4713 13.7842 25.9009C13.7842 26.3279 13.4522 26.6575 13.0177 26.6575ZM23.7316 21.1223H18.3715L18.9808 11.8058L15.5 21.1223H10.5225L18.4201 0.0643311H23.7163L23.1049 9.50864L26.6518 0.0643311H31.6296L23.7316 21.1223ZM24.3783 21.1223L32.2754 0.0643311H37.2529L29.3557 21.1223H24.3783Z" fill="#6B6B6B"/>
<path fill-rule="evenodd" clip-rule="evenodd" d="M9.9486 13.8645C2.99312 22.0326 -3.56809 32.901 2.22739 37.9058C7.84316 42.7559 14.8626 39.8843 19.6487 37.9697C24.4348 36.0552 77.3358 13.0825 77.3358 13.0825C77.8462 12.8273 77.7508 12.5081 77.1125 12.6675C76.8551 12.7318 19.5213 28.2697 19.5213 28.2697C12.2458 30.312 3.95018 25.8609 9.9486 13.8645Z" fill="#6B6B6B"/>
<path fill-rule="evenodd" clip-rule="evenodd" d="M13.2051 25.976C13.3595 25.9686 13.4803 25.8889 13.4803 25.6751C13.4803 25.3996 13.3001 25.3303 12.9992 25.3303H12.5668V26.4728H12.8552V25.9864H12.9038L13.1665 26.4728H13.4981L13.2051 25.976ZM13.02 25.7909H12.8556V25.5257H12.9943C13.0793 25.5257 13.1769 25.5357 13.1769 25.6465C13.1769 25.7652 13.1204 25.7909 13.02 25.7909ZM63.0533 0C62.4358 0 61.9522 0.432463 61.9522 1.06248C61.9522 1.69292 62.4387 2.12247 63.0533 2.12247C63.668 2.12247 64.1544 1.69001 64.1544 1.06248C64.1548 0.432463 63.6713 0 63.0533 0ZM63.0533 1.8195C62.613 1.8195 62.2863 1.49785 62.2863 1.0629C62.2863 0.628359 62.6105 0.304218 63.0533 0.304218C63.4908 0.304218 63.8203 0.63334 63.8203 1.0629C63.8203 1.48997 63.4883 1.8195 63.0533 1.8195Z" fill="#6B6B6B"/>
<path fill-rule="evenodd" clip-rule="evenodd" d="M63.2413 1.13719C63.3957 1.12972 63.5169 1.05003 63.5169 0.836292C63.5169 0.56071 63.3364 0.491399 63.0359 0.491399H62.6034V1.63357H62.8914V1.14757H62.9404L63.2027 1.63357H63.5348L63.2413 1.13719ZM63.0558 0.952086H62.8914V0.68688H63.0305C63.1151 0.68688 63.2131 0.697256 63.2131 0.808069C63.2131 0.926354 63.1562 0.952086 63.0558 0.952086ZM59.7737 3.57426L61.1113 0.0643311H45.9234L40.7085 6.38196L43.1161 0.0643311H38.0746L30.2404 21.1227H35.2179L38.5627 12.3165L38.7918 21.1227L54.0648 21.0895L55.5187 17.0387H49.7119L51.6198 11.9338H56.4056L57.8782 8.0093H53.0924L54.733 3.57426H59.7737ZM43.7299 19.7186L43.4108 8.74308L50.9367 0.480193L43.7299 19.7186Z" fill="#6B6B6B"/>
</svg>
