<svg width="63" height="29" viewBox="0 0 63 29" fill="none" xmlns="http://www.w3.org/2000/svg">
<path fill-rule="evenodd" clip-rule="evenodd" d="M40.5185 1.92566V0.341797H34.1822V9.0381H40.5185V7.60366H35.9454V5.24281H39.9503V3.68883H35.9454V1.92566H40.5185ZM38.7553 9.93462V13.2817H35.2879V9.93462H33.4957V18.6015H35.2879V14.7161H38.7553V18.6015H40.5185V9.93462H38.7553ZM40.5185 21.0511V19.498H34.1822V28.313H40.5185V26.73H35.9454V24.3986H39.9503V22.9646H35.9454V21.0511H40.5185ZM33.1666 0.341797H31.4034V3.68883H27.9368V0.341797H26.1737V9.0381H27.9368V5.15315H31.4034V9.0381H33.1666V0.341797ZM18.5831 0.341797V1.92566H21.2727V9.0381H23.0358V1.92566H25.7254V0.341797H18.5831ZM13.0246 9.69555C10.2454 9.69555 8.78109 11.2794 8.78109 14.2678C8.78109 17.4057 10.2454 18.9597 13.0246 18.9597C15.8039 18.9597 17.2383 17.4057 17.2383 14.2678C17.2383 11.2794 15.8039 9.69555 13.0246 9.69555ZM10.6937 14.2678C10.6937 12.2656 11.4707 11.2794 13.0246 11.2794C14.6982 11.2794 15.4751 12.2656 15.4751 14.2678C15.4751 16.39 14.6982 17.4057 13.0246 17.4057C11.4707 17.4057 10.6937 16.39 10.6937 14.2678ZM6.24094 9.93462V16.0609L2.77437 9.93462H0.89167V18.6015H2.56518V12.5047L6.1214 18.6015H8.0041V9.93462H6.24094ZM14.4591 23.0837V21.0511H18.9118V19.498H12.6959V28.313H14.4591V24.6377H18.3739V23.0837H14.4591ZM32.8383 11.4886V9.93462H25.7254V11.4886H28.3851V18.6015H30.1782V11.4886H32.8383ZM21.8106 15.2843C22.3784 15.2843 22.8266 15.3735 23.0358 15.6126L23.3646 18.6015H25.3668V18.3923C25.1576 18.2723 25.0381 17.7348 25.0381 16.7183C25.0381 15.4935 24.5898 14.8356 23.9324 14.5069C24.8289 14.1483 25.2772 13.4908 25.2772 12.3851C25.2772 10.8312 24.3806 9.93462 22.4979 9.93462H18.1348V18.6015H19.9279V15.2843H21.8106ZM19.9279 13.8196V11.4886H22.1393C23.0358 11.4886 23.4841 11.8173 23.4841 12.5943C23.4841 13.3713 23.0358 13.8196 22.0497 13.8196H19.9279ZM23.0358 19.498H20.9141L17.8061 28.313H19.6888L20.3761 26.4008H23.6036L24.1416 28.313H26.0541L23.0358 19.498ZM21.9301 21.4994L23.0358 24.9668H20.8244L21.9301 21.4994ZM31.7325 22.3959H33.4957C33.4056 21.6193 33.1666 20.9619 32.6282 20.3937C31.8517 19.7362 30.9551 19.288 29.7299 19.288C28.5046 19.288 27.6081 19.7362 26.8311 20.5136C26.1737 21.2902 25.7254 22.3959 25.7254 23.8607C25.7254 26.9686 27.0403 28.5218 29.6104 28.5218C31.8517 28.5218 33.0765 27.4161 33.4957 25.2947H31.7325C31.4935 26.3103 30.7161 26.8487 29.7299 26.8487C28.2656 26.8487 27.6081 25.8629 27.6081 23.9499C27.6081 21.8584 28.2656 20.8419 29.7299 20.8419C30.7161 20.8419 31.2843 21.4102 31.7325 22.3959ZM9.55808 28.1939H9.58796H9.55808ZM9.58796 28.1939C9.8868 28.1939 10.1259 28.0739 10.3056 27.9249C10.455 27.7456 10.5741 27.5065 10.5741 27.1782C10.5741 26.8192 10.4546 26.5801 10.3056 26.4307C10.1263 26.2817 9.88722 26.1916 9.58796 26.1916H9.55808C9.19947 26.1916 8.96039 26.2817 8.81097 26.4307C8.66197 26.5797 8.5719 26.8192 8.5719 27.1782V27.2073C8.5719 27.5065 8.66155 27.7456 8.81097 27.9249C8.96039 28.0739 9.19988 28.1939 9.55808 28.1939H9.58796ZM9.55808 28.4329C9.1397 28.4329 8.84086 28.2839 8.63167 28.0739C8.42248 27.8647 8.33283 27.5663 8.33283 27.2073V27.1782C8.33283 26.759 8.42248 26.4606 8.63167 26.2518C8.84086 26.0426 9.1397 25.9526 9.55808 25.9526H9.58796C9.94657 25.9526 10.2454 26.0426 10.4546 26.2518C10.6638 26.461 10.8132 26.7594 10.8132 27.1782C10.8132 27.5667 10.6638 27.8647 10.4546 28.0739C10.3412 28.1883 10.2062 28.279 10.0574 28.3406C9.90862 28.4023 9.74902 28.4337 9.58796 28.4329H9.55808ZM9.67762 27.0583H9.7075C9.82704 27.0583 9.88681 26.9981 9.88681 26.8491V26.8192C9.88681 26.8192 9.85692 26.8192 9.85692 26.7893C9.82704 26.7594 9.76727 26.7594 9.67762 26.7594H9.34889V27.0587H9.67762V27.0583ZM9.88681 27.2675L10.1259 27.5667C10.1558 27.6261 10.1259 27.6858 10.096 27.7157C10.0362 27.7759 9.94657 27.7456 9.91669 27.7157L9.61785 27.2973H9.34889V27.6257C9.34889 27.6858 9.28912 27.7456 9.22935 27.7456C9.16958 27.7456 9.10982 27.6854 9.10982 27.6257V26.6399C9.10982 26.5797 9.16958 26.5208 9.22935 26.5208H9.7075C9.82704 26.5208 9.94657 26.5498 10.0063 26.61C10.0362 26.6399 10.0661 26.6399 10.0661 26.6702C10.1259 26.7304 10.1259 26.7893 10.1259 26.8495C10.1259 27.0882 10.0661 27.2073 9.88681 27.2675ZM41.7433 0.341797C47.3022 0.341797 52.1131 2.37392 55.9981 6.25887C60.0026 10.2634 62.0052 15.0448 62.0052 20.6328V28.313H53.8767V20.3937C53.8767 17.2866 52.771 14.5966 50.5297 12.3851C49.9914 11.8173 49.424 11.3691 48.7665 10.9208C46.9735 9.69555 44.8517 9.15764 42.6403 9.15764H41.7437V0.341797H41.7433ZM53.0989 28.313H46.7635V22.1867C46.7635 21.1711 46.4351 20.3937 45.7478 19.7362C45.0904 19.0497 44.1938 18.7206 43.2973 18.7206H41.7433V9.93462H42.6399C44.9704 9.93462 46.9726 10.5921 48.7661 11.9369C49.2144 12.1461 49.6626 12.5943 49.9909 12.923C52.1131 15.0452 53.0989 17.4957 53.0989 20.3941V28.313ZM45.9869 28.313H41.7429V19.498H43.2973C43.9846 19.498 44.6421 19.7362 45.2095 20.2746C45.6577 20.7228 45.9869 21.4102 45.9869 22.1867V28.313Z" fill="#6B6B6B"/>
</svg>
