<svg width="247" height="41" viewBox="0 0 247 41" fill="none" xmlns="http://www.w3.org/2000/svg">
<g clip-path="url(#clip0)">
<path d="M14.5512 0.00243014C14.3176 0.015658 14.0907 0.0856262 13.8719 0.250452C14.7726 0.462793 15.8281 0.605515 16.3966 1.57323C16.6816 1.93004 16.5928 2.4783 16.3079 2.79159C15.7692 3.54871 14.8441 3.78629 14.0529 3.54436C11.3702 2.79768 8.8331 1.3461 6.07674 0.96841C4.60038 0.738663 3.15724 1.57585 2.13856 2.78724C1.19812 3.89942 0.856192 5.58771 1.04236 7.11239C1.25038 8.31856 2.00864 9.57172 3.10557 9.74925C2.45597 8.91729 2.3327 7.47267 3.00592 6.60764C3.38682 6.05068 4.06373 5.9741 4.62622 6.07679C6.76251 6.54498 8.84417 7.30297 10.9746 7.81294C12.1674 8.19585 13.3463 8.65273 14.5658 8.91381C14.5879 10.6317 14.5879 12.3478 14.5658 14.0657C13.7789 14.7584 13.0274 15.5042 12.2553 16.2196C13.0068 16.8827 13.7818 17.5041 14.5586 18.1254C14.6088 20.5552 14.5512 22.9842 14.5881 25.4138C13.3169 26.5712 11.6138 26.7592 10.0667 26.5451C8.42341 26.4374 6.96477 25.2832 5.8885 23.8821C7.69276 22.7473 9.53156 21.6769 11.377 20.6363C11.4418 16.8053 11.3887 12.9727 11.4064 9.14007C9.10032 10.2801 6.81787 11.4811 4.51918 12.6385C5.18354 10.6352 6.535 9.01215 8.14733 8.04791C7.72642 8.0775 7.28499 8.04095 6.89243 8.25677C3.87475 9.66136 1.38783 12.6803 0.451965 16.3632C-0.17401 18.7024 0.0275125 21.2599 0.706637 23.5471C1.54816 26.0917 3.10498 28.3441 5.16893 29.6302C6.32801 30.3368 7.57554 30.9989 8.90426 31.0182C11.6547 31.288 14.5482 30.0646 16.4042 27.6242C17.2145 26.5991 17.6229 25.2625 18.0245 23.9692C18.3966 22.6953 18.5648 21.3393 18.5264 19.9921C17.6362 22.0738 16.4521 24.029 14.8355 25.4094C14.8457 22.9884 14.8318 20.5682 14.8391 18.1472C15.542 17.5154 16.2475 16.8844 16.9281 16.2196C16.2298 15.4903 15.5359 14.7619 14.8391 14.0309C14.8422 12.3287 14.8361 10.623 14.8391 8.92251C16.4114 8.82504 18.2207 7.84688 18.6444 5.90274C18.9396 4.63391 19.0939 3.13099 18.434 1.98225C17.8272 1.1677 17.0403 0.460183 16.1161 0.263506C15.6044 0.210768 15.0648 -0.0264622 14.5512 0.00243014ZM7.19508 11.6769C7.18917 15.3667 7.21353 19.0566 7.18401 22.7466C6.66138 22.9886 6.14746 23.2531 5.63383 23.521C4.68601 21.9042 4.09694 20.0008 3.82529 18.0689C3.75148 16.438 4.00836 14.7863 4.48965 13.2564C5.39909 12.7464 6.2886 12.1955 7.19508 11.6769ZM187.525 0.00243014C187.272 -0.00662047 187.024 0.0520345 186.79 0.250452C187.322 0.394914 187.883 0.456702 188.381 0.750847C188.824 1.00148 189.117 1.52015 189.27 2.05622C189.353 2.63581 188.993 3.17015 188.562 3.38771C187.788 3.80891 186.91 3.61398 186.122 3.3616C184.232 2.67932 182.392 1.79689 180.464 1.2643C179.473 1.0154 178.435 0.780435 177.434 1.09025C176.349 1.45053 175.247 2.06319 174.607 3.20496C173.78 4.46334 173.676 6.19427 174.079 7.6737C174.411 8.66057 175.084 9.6309 176.035 9.75795C175.725 9.28802 175.191 8.81373 175.345 8.14364C175.431 7.47876 175.664 6.80432 176.116 6.37267C176.568 5.97062 177.187 5.97584 177.711 6.15511C179.633 6.57631 181.509 7.21247 183.41 7.74332C184.697 8.06531 185.934 8.63185 187.23 8.91381C187.252 10.6247 187.235 12.3356 187.241 14.0483C186.544 14.7741 185.847 15.499 185.159 16.237C185.853 16.8688 186.534 17.5162 187.237 18.1341C187.247 20.5693 187.233 23.0075 187.248 25.4442C186.029 26.5214 184.424 26.787 182.944 26.5449C181.31 26.4301 179.881 25.2711 178.796 23.8995C179.24 23.5339 179.748 23.2991 180.228 23.0032C181.577 22.22 182.91 21.4002 184.27 20.6448C184.312 16.8105 184.275 12.9744 184.288 9.14007C181.996 10.2905 179.723 11.495 177.423 12.6211C177.948 11.1504 178.789 9.80495 179.918 8.90511C180.256 8.54134 180.598 8.16017 181.062 8.03485C180.598 8.07315 180.119 8.05487 179.696 8.30898C176.456 9.85455 173.692 13.2259 173.082 17.3683C172.851 19.4708 173.017 21.6543 173.64 23.6472C174.438 25.9864 175.845 28.0646 177.674 29.3908C178.549 30.0192 179.49 30.5248 180.471 30.8744C182.822 31.3357 185.343 30.9371 187.399 29.4646C188.756 28.349 190.016 26.9026 190.584 25.0263C191.194 23.4338 191.439 21.6942 191.47 19.9571C191.187 20.394 191.021 20.9135 190.78 21.38C189.999 22.9256 188.988 24.3258 187.757 25.3962C187.772 22.9682 187.739 20.5402 187.776 18.1122C188.472 17.5187 189.126 16.8573 189.828 16.2673C189.181 15.4771 188.447 14.7948 187.761 14.0568C187.747 12.3546 187.777 10.6507 187.746 8.94845C189.097 8.84576 190.463 8.13128 191.189 6.73365C191.945 5.29774 191.941 3.34141 191.211 1.89505C190.637 1.00044 189.735 0.424328 188.801 0.25898C188.383 0.218949 187.947 0.0177466 187.525 0.00243014ZM180.11 11.6725C180.127 15.3554 180.11 19.0374 180.117 22.7204C179.584 22.9832 179.058 23.2608 178.526 23.5253C177.756 22.2478 177.156 20.811 176.847 19.2829C176.506 17.2813 176.596 15.1117 177.386 13.2651C178.301 12.7499 179.203 12.2103 180.11 11.6725ZM70.3116 1.22949C71.1915 3.04657 70.6408 5.50938 69.3165 6.81824C68.503 7.44308 67.567 7.7877 66.6502 8.13754C66.6709 15.5695 66.6533 23.0032 66.6561 30.4351C66.7211 30.7745 66.4568 31.0407 66.1853 30.9051C65.6492 30.8755 65.5075 30.2089 65.2801 29.7598C61.982 22.6098 58.7194 15.4355 55.3944 8.30115C55.331 13.5488 55.393 18.8016 55.3634 24.0508C56.9343 24.4008 58.4638 25.2937 59.4913 26.7662C59.9682 26.331 60.2768 25.5652 60.888 25.3894C60.733 25.7219 60.5071 25.9949 60.2915 26.2736C59.1031 27.8244 57.9175 29.3821 56.7305 30.9364C56.18 30.1184 55.4463 29.3421 54.5278 29.2307C53.924 29.2029 53.2258 29.2394 52.7857 29.8016C52.2793 30.3342 51.9399 31.2323 52.3015 31.9929C52.7252 33.0842 53.7911 33.3801 54.6888 33.6411C53.5667 33.9022 52.3105 33.7491 51.4055 32.8631C50.685 32.1373 50.0308 31.2164 49.8435 30.0923C49.591 28.5432 49.9837 26.8217 50.9655 25.7234C52.039 24.472 53.6126 24.0055 55.086 24.1047C55.1259 21.8176 55.1082 19.5307 55.0949 17.2437C54.3789 17.1097 53.403 17.2298 53.0693 18.1122C52.8759 18.8275 53.3308 19.4298 53.7809 19.8214C53.2229 19.7065 52.6028 19.5812 52.1998 19.0712C51.7244 18.3802 51.3553 17.5639 51.218 16.6832C51.0807 15.5502 51.3331 14.2587 52.1333 13.5295C52.9704 12.7654 54.0851 12.6609 55.1067 12.6888V7.85367C54.7361 7.1975 54.3803 6.4456 53.7442 6.1062C53.3278 5.90256 52.7845 5.82946 52.4258 6.21237C51.9297 6.70842 51.81 7.49687 51.6138 8.18785C51.4233 6.5013 51.5666 4.58848 52.569 3.2657C53.7796 1.41729 56.3411 1.34941 57.6654 3.05858C58.2382 3.75304 58.6309 4.60937 59.0208 5.45351C61.4716 10.5984 63.8736 15.7764 66.3495 20.904C66.3642 16.6519 66.3716 12.3966 66.3465 8.14433C65.9212 7.9494 65.4474 7.95462 65.0147 7.77709C64.2086 7.52645 63.5369 6.9138 62.9404 6.25066C62.5684 6.76585 62.1932 7.2793 61.8464 7.81712C61.7652 7.7649 61.6043 7.66221 61.5233 7.61C62.7929 5.72329 64.154 3.92187 65.4755 2.0839C66.1679 2.94371 67.0715 3.64687 68.1019 3.72519C69.1777 3.57917 70.2363 2.56445 70.3116 1.22949ZM152.725 5.34578C154.497 3.9847 156.265 2.61145 158.043 1.26081C158.058 9.2915 158.029 17.3239 158.058 25.3546C158.442 25.9707 158.965 26.4772 159.431 27.0187C159.723 26.6497 160.027 26.2964 160.328 25.9396C160.399 26.023 160.541 26.1902 160.613 26.272C159.194 27.7217 157.82 29.2272 156.392 30.6616C155.493 29.5738 154.563 28.5242 153.671 27.431C153.271 27.8505 152.905 28.3102 152.529 28.7575C152.452 28.6878 152.298 28.5467 152.222 28.4772C152.902 27.7097 153.632 27.0065 154.32 26.2459C154.314 20.1594 154.324 14.0728 154.314 7.98803C154.297 6.84957 153.805 5.48676 152.725 5.34578ZM20.4387 5.58248C21.9638 4.2423 23.4594 2.85338 24.9859 1.51841C24.9933 5.94277 24.9844 10.3689 24.9903 14.795C26.2822 13.5383 27.5842 12.2973 28.8627 11.0233C29.8888 12.2782 30.8469 13.6114 31.904 14.8263C32.35 14.4486 32.8075 14.0901 33.2755 13.7524C33.1915 14.4538 32.4798 14.694 32.1107 15.1831C32.1151 17.6024 32.1107 20.02 32.1121 22.4393C32.1417 24.2478 31.9202 26.0438 31.8746 27.8505C31.8051 29.8103 31.16 31.8138 29.8638 33.0998C28.8095 34.2105 27.3688 34.6106 25.9943 34.7446C25.9707 34.7829 25.9205 34.8612 25.8954 34.9011L25.9323 34.7585C25.4584 34.7585 24.9859 34.7377 24.5135 34.6959C25.1071 34.3339 25.7787 34.1024 26.2467 33.5036C26.7841 32.7968 27.4101 32.1234 27.6744 31.1992C28.1069 29.7894 28.1202 28.2699 28.163 26.7905C28.1512 23.4749 28.1763 20.1575 28.1498 16.8435C27.5238 15.881 26.7738 15.0317 26.1094 14.1023C25.7462 14.56 25.3109 14.9447 24.9992 15.4529C24.9741 18.8747 24.9963 22.2983 24.9889 25.7199C25.3655 26.1622 25.7403 26.6078 26.1198 27.0464C26.424 26.6861 26.728 26.3241 27.0322 25.962C27.1002 26.0404 27.2344 26.197 27.3023 26.2753C25.826 27.6364 24.3645 29.0185 22.8882 30.3777C21.9536 29.3995 21.0412 28.3935 20.1215 27.3962C19.8129 27.6677 19.5044 27.9427 19.1943 28.2123C19.128 28.1305 18.998 27.9669 18.9317 27.8851C19.6403 27.3473 20.3357 26.7853 21.037 26.2369C21.0355 20.1521 21.0355 14.069 21.037 7.98421C21.022 7.51949 21.0414 7.01823 20.8332 6.60399C20.6958 6.28721 20.3859 6.18627 20.154 5.99481C20.1021 5.79309 20.3472 5.7078 20.4387 5.58248ZM122.122 2.35211C120.734 3.67663 119.378 5.04206 118.003 6.38573C117.988 5.11864 118.022 3.85416 117.985 2.58708C117.772 2.57489 117.679 2.68803 117.708 2.92648C117.701 11.8831 117.71 20.8389 117.704 29.7955C116.954 29.6265 116.203 29.45 115.46 29.2516C115.449 21.6978 115.46 14.1456 115.457 6.59024C115.441 5.6347 115.178 4.67394 114.645 3.94467C113.98 3.01698 112.942 2.58621 111.939 2.5044C110.751 2.46437 109.661 3.20061 108.831 4.14918C108.068 5.00377 107.659 6.32481 107.876 7.55186C107.969 6.79126 108.179 5.93407 108.772 5.51112C109.424 5.18391 110.291 5.4476 110.681 6.16816C111.014 6.74949 111.048 7.47615 111.061 8.15669C111.064 10.1983 111.059 12.2399 111.061 14.2833C109.918 14.3041 108.569 14.5217 107.909 15.7714C107.244 16.7496 107.039 18.1367 107.495 19.2872C107.795 20.4255 108.799 21.0122 109.732 21.1931C109.209 20.7947 108.678 20.0932 108.986 19.3133C109.401 18.5301 110.344 18.4152 111.046 18.6432C111.074 22.2668 111.06 25.8889 111.053 29.5127C110.005 29.9441 108.985 30.6936 108.425 31.858C108.018 32.6882 108.007 33.6812 108.041 34.6123C108.167 36.2449 109.081 37.7355 110.308 38.4806C111.235 38.9923 112.278 39.008 113.282 38.968C116.132 38.768 118.839 37.4346 121.694 37.3234C122.544 37.2483 123.043 38.3563 122.82 39.2249C122.65 40.0098 122.092 40.5407 121.565 41.0002C122.567 40.7495 123.565 40.3057 124.348 39.5032C125.231 38.6209 125.637 37.1979 125.581 35.8612C125.514 34.5384 124.609 33.5541 123.669 32.985C122.43 32.1286 120.935 32.3194 119.572 32.4935C117.012 32.8416 114.517 33.7997 111.932 33.8815C111.055 33.9511 110.236 33.2192 110.06 32.2063C109.863 31.23 110.535 30.376 111.216 29.9567C112.689 29.1369 114.385 29.4404 115.922 29.8218C117.704 30.0413 119.375 30.8983 121.159 31.1141C122.172 31.2499 123.247 31.0203 124.078 30.2962C124.935 29.6731 125.321 28.459 125.344 27.3156C125.355 20.1865 125.333 13.0581 125.355 5.92919C125.908 5.36353 126.516 4.85617 126.998 4.20174C126.325 4.39842 125.902 5.14249 125.352 5.5985C124.264 4.53122 123.199 3.43644 122.122 2.35211ZM119.103 5.95495C119.723 6.58153 120.333 7.2203 120.952 7.8521C120.954 10.0974 120.948 12.3426 120.952 14.5879C120.658 14.929 120.337 15.2893 119.908 15.3537C119.208 15.5277 118.526 15.1196 117.999 14.6096C118.002 11.9884 118.001 9.36808 117.999 6.74688C118.369 6.48581 118.737 6.22473 119.103 5.95495ZM117.999 15.2318C118.906 15.7749 120.072 15.9394 120.952 15.2362C120.949 16.2544 120.949 17.2769 120.952 18.2951C120.595 17.8844 120.136 17.558 119.623 17.5598C119.021 17.5441 118.468 17.8791 117.999 18.2951C118.002 17.2752 117.998 16.2535 117.999 15.2318ZM119.616 17.8818C120.201 17.8992 120.649 18.4135 120.952 18.9565C120.948 21.7988 120.954 24.6427 120.952 27.485C120.999 28.357 120.49 29.1028 119.934 29.604C119.396 30.107 118.667 30.1245 118.014 30.0827C117.977 26.3702 118.013 22.6518 117.999 18.9391C118.422 18.3978 118.956 17.8713 119.616 17.8818ZM192.299 6.98533C193.255 5.99673 194.156 4.93502 195.133 3.97426C195.96 5.0029 196.831 5.98106 197.671 6.99403C196.662 8.10622 195.648 9.20969 194.627 10.3045C193.855 9.19229 193.06 8.10622 192.299 6.98533ZM81.8818 8.04356C82.4797 7.5597 83.2356 7.58929 83.9267 7.48486C83.4055 7.97046 82.8268 8.53438 82.7558 9.37156C82.6391 10.12 83.0409 10.7936 83.5089 11.2426C84.3607 12.0467 85.4547 12.4958 86.1486 13.5261C86.4822 14.0239 86.6845 14.654 86.6697 15.2928C86.6653 18.6693 86.6727 22.0442 86.6653 25.419C87.427 26.1448 88.1919 26.8619 88.952 27.5877C89.1735 27.4188 89.395 27.2502 89.618 27.0812C89.6077 23.3965 89.6341 19.7102 89.6046 16.0272C89.2135 15.4825 88.6717 15.0926 88.2242 14.607C89.3226 13.4148 90.3989 12.1912 91.5194 11.0285C92.4938 12.1564 93.5184 13.2233 94.5179 14.3198C94.1385 14.793 93.7481 15.2539 93.3472 15.7018C93.3398 18.9409 93.3472 22.1799 93.3427 25.419C94.3407 26.331 95.3389 27.2448 96.3471 28.1429C96.489 28.0452 96.6322 27.9497 96.7784 27.854C96.7635 23.898 96.7798 19.9434 96.7694 15.9872C96.3073 15.5225 95.8289 15.0787 95.3727 14.6053C96.4505 13.4043 97.5415 12.2242 98.6251 11.032C99.7044 12.0276 100.785 13.0231 101.858 14.0274C102.23 13.5435 102.611 13.0632 103.036 12.6402C103.091 12.7325 103.203 12.9187 103.258 13.011C102.34 13.9752 101.427 14.9516 100.537 15.9524C100.46 19.1062 100.535 22.2704 100.5 25.426C98.1629 27.2361 95.7225 28.888 93.3514 30.6492C92.1008 29.5927 90.8859 28.4788 89.6515 27.398C88.5443 28.4475 87.4355 29.4987 86.3209 30.5378C86.1614 30.7467 85.9976 30.4421 85.8662 30.3551C84.8237 29.3682 83.7875 28.3725 82.7319 27.4084C82.2889 27.8642 81.824 28.2907 81.3797 28.7467C81.3088 28.6666 81.17 28.5082 81.0992 28.4299C81.641 27.988 82.171 27.5231 82.7128 27.081C82.7159 24.0229 82.7159 20.9666 82.7128 17.9086C82.7113 17.0905 82.4677 16.262 81.9938 15.6563C81.4727 14.9897 80.7714 14.5215 80.3565 13.7401C79.8974 12.8315 79.8561 11.7054 80.0317 10.6905C80.2888 9.54387 81.0611 8.67014 81.8818 8.04356ZM246.192 10.2279C246.298 10.5481 246.332 10.9058 246.199 11.2243C245.873 12.1033 244.984 12.4409 244.228 12.4253C243.437 12.3417 242.819 11.6708 242.286 11.0372C241.392 11.7439 240.493 12.4453 239.6 13.1519C238.569 13.97 237.431 14.5739 236.289 15.1361C236.285 16.8662 236.29 18.5927 236.285 20.3228C237.119 21.1426 237.977 21.9258 238.795 22.7682C238.168 23.5514 237.549 24.3458 236.957 25.1656C236.349 26.0289 235.774 27.0262 235.739 28.1855C235.704 29.5029 236.182 30.9294 237.171 31.6272C237.608 31.9301 238.14 32.1998 238.647 31.9666C238.016 31.7003 237.238 31.1608 237.293 30.2522C237.468 29.3924 238.334 28.8172 239.053 29.0643C239.799 29.3149 240.415 29.9433 240.891 30.6482C242.808 29.0208 244.826 27.5666 246.922 26.2839C246.906 24.0893 246.948 21.8891 246.904 19.6961C245.978 18.9302 245.095 18.0957 244.18 17.3159C245.149 15.8696 246.123 14.3397 246.527 12.5295C246.678 11.7656 246.729 10.8023 246.192 10.2279ZM240.02 13.5174C240.642 14.5704 241.465 15.5947 242.593 15.8106C243.716 16.1221 244.805 15.4041 245.542 14.4486C244.534 16.6469 242.969 18.4117 241.353 19.9921C240.916 19.4456 240.446 18.9365 240.013 18.3865C240.031 16.7644 240.016 15.1396 240.02 13.5174ZM241.604 20.0791C242.088 20.5595 242.566 21.0484 243.051 21.5325C243.272 21.6891 243.164 22.0163 243.194 22.2635C243.181 24.1484 243.215 26.0395 243.176 27.9245C242.814 26.96 242.273 26.063 241.508 25.4919C240.399 24.6375 238.875 24.5879 237.747 25.418C237.23 25.7554 236.817 26.2595 236.425 26.7712C236.985 25.4832 237.889 24.4668 238.74 23.4467C239.711 22.3435 240.682 21.2418 241.604 20.0791ZM42.2438 11.0329C40.9682 11.9031 39.7356 12.8526 38.4866 13.7698C37.4279 14.4208 36.3525 15.0352 35.2865 15.667C35.2909 19.1915 35.2822 22.716 35.294 26.2405C34.8393 26.6567 34.3084 26.9559 33.895 27.4329C33.9747 27.4885 34.1327 27.6018 34.2124 27.6592C34.5697 27.2954 34.9231 26.9247 35.316 26.6149C36.6373 27.9097 37.8843 29.3118 39.2025 30.6137C39.2673 30.5739 39.3981 30.4929 39.4646 30.4527C41.6967 28.4128 43.9519 26.4034 46.1855 24.3653L45.9087 24.0781C44.6656 25.2199 43.4565 26.4219 42.2252 27.5809C41.208 26.5018 40.224 25.38 39.2097 24.2957C38.8643 23.9981 39.0577 23.4333 39.0326 23.0121C41.1157 21.2141 43.1997 19.4153 45.2517 17.5686C44.2273 15.4033 43.2359 13.2189 42.2438 11.0329ZM39.0253 13.6306C40.0795 15.6722 41.1387 17.7068 42.1811 19.7571C41.121 20.6361 40.0699 21.5255 39.0218 22.4201C39.0113 19.4908 39.0061 16.5598 39.0253 13.6306ZM76.7684 11.0285C75.8693 11.7265 74.9643 12.4157 74.0445 13.0736C72.6997 14.0657 71.2418 14.8124 69.8332 15.667C69.8376 19.1897 69.8251 22.7134 69.8369 26.2362C69.403 26.6173 68.9232 26.9193 68.5008 27.3196C68.5451 27.4119 68.6374 27.5972 68.6817 27.6895C69.1497 27.3188 69.6118 26.9385 70.0916 26.5886C71.3007 27.9514 72.5276 29.2935 73.7456 30.6442C76.0237 28.6494 78.2588 26.5836 80.5148 24.5524C80.8042 24.4828 80.5665 23.9293 80.3819 24.1432C79.1595 25.2606 77.9734 26.4355 76.7686 27.5807C75.8237 26.4755 74.8855 25.3652 73.945 24.2563C73.6407 23.9413 73.821 23.4157 73.8048 23.0032C75.8097 21.2488 77.7525 19.3943 79.7619 17.6468C78.836 15.4015 77.7531 13.2407 76.7684 11.0285ZM73.7788 13.7002C74.8122 15.6844 75.7593 17.7347 76.713 19.7746C75.7283 20.6257 74.7768 21.529 73.8008 22.394C73.7552 19.4978 73.8009 16.5981 73.7788 13.7002ZM135.003 11.0372C134.017 11.7143 133.044 12.4122 132.088 13.1432C130.964 13.9508 129.736 14.5243 128.541 15.1579C128.569 18.8547 128.549 22.5524 128.552 26.2494C128.152 26.7192 127.748 27.1875 127.36 27.6677C127.441 27.6625 127.603 27.6486 127.684 27.6418C127.968 27.2848 128.263 26.9367 128.555 26.5886C129.897 27.8836 131.22 29.2065 132.553 30.5136C132.773 30.7641 133.021 30.3909 133.236 30.3002C135.379 28.9183 137.405 27.29 139.613 26.0491C139.647 22.6046 139.624 19.161 139.628 15.7148C140.027 15.2449 140.431 14.7767 140.82 14.2963C140.742 14.2981 140.586 14.3059 140.507 14.3094C140.134 14.6697 139.758 15.0204 139.384 15.3754C137.923 13.9308 136.468 12.4749 135.003 11.0372ZM132.505 13.5914C133.559 14.7593 134.632 15.9098 135.686 17.0811C135.676 20.7484 135.679 24.4139 135.679 28.0811C134.598 26.9637 133.572 25.7786 132.505 24.6436L132.505 13.5914Z" fill="#6B6B6B"/>
<path d="M158.227 19.2524C159.748 16.5006 161.301 13.7733 162.86 11.0494C163.535 11.7256 164.369 12.1443 165.25 12.2503C166.112 12.2521 166.847 11.6481 167.497 11.0442C167.333 12.5288 166.914 14.0709 165.947 15.103C165.104 16.015 163.825 16.2343 162.764 15.7888C162.138 15.5381 161.559 15.1448 161.041 14.6627C160.949 14.9168 160.874 15.1796 160.819 15.4476C162.978 19.2802 165.098 23.1476 167.218 27.0115C167.705 26.6391 168.132 26.169 168.562 25.7114C168.646 25.7739 168.812 25.8994 168.897 25.9618C167.372 27.5648 165.798 29.1034 164.234 30.656C162.225 26.8601 160.26 23.031 158.227 19.2524ZM231.247 11.0328C230.308 11.7064 229.365 12.3791 228.438 13.0736C227.155 14.1248 225.684 14.7793 224.323 15.6669C224.338 19.1897 224.323 22.7151 224.33 26.2361C223.86 26.6016 223.397 26.9739 222.927 27.3327C222.988 27.4197 223.111 27.5981 223.171 27.6851C223.576 27.3318 223.941 26.9123 224.378 26.606C225.596 27.941 226.87 29.2037 228.106 30.5178C228.224 30.7406 228.396 30.5126 228.515 30.4221C230.742 28.3996 232.974 26.3893 235.203 24.3738C234.942 23.8342 234.645 24.3573 234.384 24.5783C233.337 25.5828 232.293 26.586 231.243 27.585C230.17 26.4311 229.133 25.2345 228.039 24.1082C228.023 23.7459 228.021 23.3828 228.036 23.0204C230.125 21.2364 232.19 19.4106 234.262 17.5989C233.264 15.4041 232.262 13.2137 231.247 11.0328ZM228.025 13.6915C229.154 15.66 230.146 17.7399 231.206 19.7658C230.131 20.6345 229.086 21.5533 228.017 22.4288C228.035 19.5169 228.019 16.6033 228.025 13.6915ZM145.091 11.3226C145.935 12.2294 146.645 13.2981 147.429 14.278C148.283 13.3138 149.117 12.3217 149.94 11.3209C150.54 11.7734 151.164 12.4087 151.934 12.226C152.475 12.1824 152.757 11.5559 153.218 11.3C153.219 12.6315 152.96 14.0309 152.212 15.0647C151.356 16.2726 149.737 16.6259 148.591 15.7975C148.151 15.5451 147.859 15.0612 147.448 14.7636C147.459 18.4047 147.454 22.0441 147.451 25.6853C148.06 26.237 148.669 26.787 149.295 27.3126C149.75 26.9611 150.1 26.3136 150.674 26.2527C149.325 27.7669 147.91 29.2081 146.504 30.6509C145.446 29.4761 144.366 28.3308 143.32 27.1422C142.913 27.5737 142.536 28.0438 142.148 28.4981C142.086 28.4128 141.962 28.2438 141.9 28.1587C142.413 27.4869 142.984 26.8812 143.508 26.2215C143.489 23.106 143.518 19.9905 143.495 16.8768C143.214 16.09 142.727 15.4078 142.374 14.6559C141.891 14.9918 141.54 15.6915 140.939 15.7158C142.305 14.2275 143.732 12.8195 145.091 11.3226ZM199.873 15.2179C201.13 13.9212 202.36 12.5915 203.623 11.3052C204.53 12.4835 205.467 13.6288 206.358 14.8245C207.692 13.688 208.974 12.4661 210.295 11.3052C211.221 12.4748 212.129 13.6636 213.063 14.8245C214.373 13.6549 215.666 12.4609 216.985 11.307C217.885 12.4905 218.814 13.6445 219.725 14.8176C220.283 14.3981 220.795 13.8951 221.364 13.493C221.406 13.8829 221.105 14.0604 220.896 14.2763C220.591 14.5652 220.296 14.868 219.992 15.1552C219.967 18.396 219.998 21.6369 219.976 24.8775C220.5 25.5186 221.034 26.1476 221.579 26.7642C221.867 26.4111 222.162 26.0645 222.443 25.7025C222.527 25.7652 222.697 25.8887 222.781 25.9514C221.403 27.5509 219.983 29.1019 218.569 30.656C217.572 29.2688 216.527 27.9269 215.554 26.5153C215.79 26.2595 216.021 25.9932 216.248 25.7253C216.251 22.9299 216.248 20.1346 216.248 17.3411C215.495 16.3509 214.745 15.3569 213.969 14.3929C213.744 14.6627 213.52 14.9307 213.298 15.202C213.295 18.697 213.31 22.1919 213.291 25.6868C213.664 26.1811 214.085 26.6232 214.465 27.1158C213.444 28.1827 212.461 29.3001 211.447 30.3775C210.5 29.2028 209.567 28.0115 208.649 26.8042C208.911 26.4248 209.435 26.1498 209.352 25.572C209.34 22.8463 209.364 20.119 209.34 17.3952C208.708 16.3579 208 15.3536 207.267 14.4068C207.054 14.6748 206.836 14.9377 206.618 15.2005C206.624 18.5858 206.602 21.9728 206.628 25.3581C206.938 25.981 207.4 26.4911 207.786 27.0531C206.795 28.2804 205.772 29.4724 204.74 30.6508C203.754 29.2655 202.732 27.9166 201.739 26.5399C202.049 26.256 202.362 25.9759 202.673 25.6922C202.664 22.8324 202.655 19.9712 202.678 17.1115C202.096 16.2622 201.458 15.4685 200.847 14.6487C200.413 15.0282 200.031 15.5051 199.534 15.7731C199.51 15.5068 199.733 15.3797 199.873 15.2179Z" fill="#6B6B6B"/>
<path d="M191.135 15.4424C192.434 14.0395 193.779 12.6906 195.092 11.3035C196.026 12.5566 196.934 13.8376 197.865 15.096C198.347 14.6505 198.78 14.1213 199.314 13.7541C199.274 13.9543 199.229 14.1614 199.071 14.2745C198.67 14.6661 198.273 15.0595 197.87 15.4406C197.876 18.6867 197.858 21.931 197.879 25.177C198.405 25.8767 198.948 26.5625 199.438 27.3003C199.847 27.0063 200.189 26.6041 200.578 26.277C200.661 26.3291 200.828 26.4319 200.91 26.4824C199.613 27.9166 198.266 29.2916 196.914 30.6507C196.015 29.3769 195.092 28.1235 194.172 26.8688C193.772 27.297 193.439 27.8156 193 28.1881C192.938 28.1202 192.814 27.981 192.752 27.9114C193.142 27.4762 193.51 27.0133 193.905 26.5816C193.936 23.6332 193.907 20.6813 193.92 17.7327C193.896 17.322 194.009 16.8364 193.737 16.5091C193.256 15.8042 192.813 15.0628 192.301 14.3892C191.919 14.7531 191.557 15.1482 191.135 15.4424Z" fill="#6B6B6B"/>
</g>
<defs>
<clipPath id="clip0">
<rect width="247" height="41" fill="white"/>
</clipPath>
</defs>
</svg>
