<svg width="20" height="20" id="tw" viewBox="0 0 20 20" fill="#c0c0c0" xmlns="http://www.w3.org/2000/svg">
<path fill-rule="evenodd" clip-rule="evenodd" d="M20 2.36765C19.2651 2.76923 18.4739 3.04081 17.644 3.16216C18.4915 2.5381 19.1419 1.54858 19.4483 0.369812C18.6547 0.947638 17.7778 1.368 16.841 1.59335C16.0944 0.612494 15.0273 0 13.8463 0C11.5819 0 9.74467 2.26074 9.74467 5.04875C9.74467 5.44456 9.77989 5.82882 9.85032 6.19863C6.4401 5.98772 3.41727 3.97977 1.39226 0.921631C1.03891 1.66992 0.836995 2.5381 0.836995 3.46262C0.836995 5.21344 1.56131 6.75912 2.66244 7.66486C1.99096 7.64031 1.35704 7.41062 0.802956 7.03503V7.09715C0.802956 9.54424 2.21752 11.5854 4.09579 12.0477C3.75183 12.1661 3.38909 12.2253 3.01462 12.2253C2.75048 12.2253 2.49222 12.195 2.24218 12.1358C2.76457 14.1408 4.27892 15.6013 6.07501 15.6403C4.671 16.9953 2.90074 17.8028 0.979042 17.8028C0.647998 17.8028 0.320479 17.7797 0 17.7335C1.81605 19.1636 3.9737 20 6.28984 20C13.8381 20 17.9644 12.3077 17.9644 5.63525C17.9644 5.41567 17.9609 5.1961 17.9539 4.98086C18.7556 4.26869 19.4518 3.38029 20 2.36765Z" fill="current"/>
</svg>
